<?xml version="1.0" encoding="UTF-8"?> <svg xmlns="http://www.w3.org/2000/svg" width="991" height="190" viewBox="0 0 991 190" fill="none"><path fill-rule="evenodd" clip-rule="evenodd" d="M391.879 2.30828C385.487 3.54629 379.412 4.90328 378.379 5.32428C377.345 5.74428 374.25 6.68528 371.5 7.41528C368.75 8.14428 363.575 9.63128 360 10.7203C353.9 12.5773 348.711 14.4043 320 24.7993C297.046 33.1103 285.016 36.2833 269.869 38.0223C258.878 39.2843 235.903 38.4583 225.605 36.4313C221.697 35.6623 212.425 33.8663 205 32.4413C197.575 31.0163 188.35 29.1683 184.5 28.3343C180.65 27.5013 174.35 26.4153 170.5 25.9213C166.65 25.4263 159.9 24.4473 155.5 23.7433C142.044 21.5933 104.455 22.1323 86 24.7403C66.692 27.4683 57.279 30.3003 39.5 38.7323L25.5 45.3723L12.75 45.1903L0 45.0073V73.8383V102.669L6.905 103.362C12.415 103.916 14.542 103.708 17.435 102.336C21.568 100.374 20.531 99.8123 30.924 109.651C33.991 112.555 37.625 115.174 39 115.471C43.248 116.388 50 119.001 50 119.727C50 120.107 51.534 121.243 53.408 122.253C56.274 123.796 57.366 123.906 60.274 122.947C62.212 122.307 65.53 122.093 67.825 122.46C71.41 123.033 73.094 124.383 81.414 133.355C89.155 141.703 91.562 143.701 94.435 144.168C96.374 144.482 99.474 145.895 101.324 147.306C105.532 150.515 106.478 150.506 111.238 147.207C115.006 144.596 115.155 144.576 118.577 146.207C121.794 147.741 122.263 147.746 124.525 146.264C126.364 145.059 129.923 144.595 138.681 144.417L150.381 144.179L156.542 149.911C163.156 156.064 163.473 156.222 172.397 157.809C175.841 158.422 179.66 159.901 181.58 161.365C185.541 164.386 185.999 164.413 190.707 161.889L194.407 159.906L196.693 162.053C198.949 164.173 199.007 164.176 201.105 162.286L203.231 160.372L212.366 170.133C221.03 179.393 221.709 179.894 225.563 179.883C228.78 179.874 230.224 180.496 232.5 182.872C234.081 184.522 235.903 185.872 236.55 185.872C237.196 185.872 239.424 184.522 241.5 182.872C244.583 180.422 246.212 179.872 250.391 179.872C254.757 179.872 255.914 180.303 258.283 182.814C261.879 186.623 264.662 187.487 266.878 185.482C268.356 184.145 268.9 184.113 270.556 185.264C274.638 188.104 278.393 188.131 281.552 185.344C286.217 181.228 295.563 177.048 297.58 178.176C298.805 178.862 299.517 178.7 300.136 177.593C300.608 176.75 303.469 175.282 306.493 174.33L311.992 172.601L315.954 175.223C319.248 177.403 320.647 177.745 324.247 177.252C327.534 176.801 328.899 177.045 329.911 178.265C331.478 180.153 336.082 180.39 337.8 178.672C338.46 178.012 339 176.295 339 174.856C339 172.566 339.968 171.793 346.75 168.667C357.823 163.563 360.981 163.191 366.38 166.355C370.45 168.739 371.122 168.843 375.634 167.781C378.31 167.151 381.281 166.239 382.236 165.754C385.123 164.288 388.585 164.756 390.5 166.872C391.712 168.211 393.58 168.872 396.155 168.872C399.146 168.872 400.002 169.261 400.011 170.622C400.026 173.096 407.625 180.746 410.825 181.51C412.296 181.861 413.95 182.489 414.5 182.907C415.05 183.324 417.429 184.238 419.786 184.938C424.045 186.202 424.09 186.189 426.9 182.823C429.646 179.534 429.747 179.5 430.431 181.654C431.273 184.308 437 184.934 437 182.372C437 180.45 438.405 180.45 440 182.372C441.639 184.346 443.902 184.271 446.23 182.164C447.757 180.782 448.44 180.688 449.809 181.67C452.958 183.932 454.26 184.191 456.244 182.952C457.949 181.887 458.748 182.138 462.021 184.769C466.68 188.513 473.395 190.306 475.094 188.259C475.727 187.496 477.202 186.854 478.372 186.831C479.543 186.809 482.058 185.459 483.962 183.831C487.95 180.422 488.949 180.277 493.221 182.486C496.074 183.961 496.574 183.964 499.023 182.518C501.365 181.134 501.942 181.115 503.602 182.371C504.646 183.162 506.419 183.823 507.542 183.84C509.984 183.878 518 176.017 518 173.584C518 172.333 518.842 171.872 521.129 171.872C523.3 171.872 525.443 170.801 528.132 168.372C532.823 164.134 535.765 163.94 542.331 167.435C547.943 170.423 550.573 170.163 557.184 165.97L561.584 163.18L565.026 165.026C566.92 166.041 568.957 166.872 569.553 166.872C570.149 166.872 572.344 168.391 574.431 170.247C576.517 172.104 580.087 174.172 582.362 174.844C584.638 175.515 587.903 176.922 589.618 177.968C594.126 180.721 599.097 180.438 602.556 177.233C607.134 172.99 612.648 170.913 615.988 172.174C618.246 173.026 619.326 172.888 621.484 171.475C624.054 169.79 624.261 169.793 626.318 171.544C627.5 172.549 628.966 173.999 629.576 174.766C630.503 175.933 630.914 175.841 632.092 174.205C634.534 170.814 635.763 170.746 640.695 173.731C643.338 175.331 647.149 177.219 649.166 177.926C652.362 179.048 653.171 178.99 655.483 177.475C656.941 176.52 660.122 175.576 662.551 175.378C666.514 175.055 667.189 175.328 669.117 178.036C670.797 180.395 671.822 180.948 673.813 180.567C675.214 180.3 677.167 180.584 678.153 181.199C679.633 182.124 680.522 181.759 683.27 179.095C687.329 175.16 688.453 175.089 690.713 178.622C694.449 184.461 694.874 184.382 703.022 176.317C707.159 172.222 710.946 168.872 711.437 168.872C711.928 168.872 715.068 171.497 718.415 174.706C723.635 179.711 725.196 180.636 729.396 181.207C732.535 181.635 734.785 181.465 735.665 180.735C736.719 179.86 737.51 180.024 739.074 181.439C741.063 183.239 741.234 183.215 746.306 180.412C757.321 174.326 763.567 170.759 765.25 169.594C766.625 168.642 767.375 168.65 768.75 169.633C772.294 172.168 773.344 172.239 774.8 170.047C776.243 167.873 779 167.052 779 168.795C779 169.96 784.379 167.325 786.008 165.362C786.678 164.555 787.657 164.16 788.183 164.485C789.14 165.077 795 159.237 795 157.692C795 157.241 795.855 156.872 796.901 156.872C799.901 156.872 815.678 144.805 817.493 141.122C818.65 138.774 819.774 137.872 821.547 137.872C823.016 137.872 824 138.45 824 139.313C824 141.54 825.73 142.095 828.229 140.669C829.478 139.956 831.625 139.298 833 139.208C841.145 138.671 848.604 133.326 850.987 126.318C851.679 124.284 853.107 122.845 855.263 122.007C857.043 121.315 860.3 118.559 862.5 115.883C866.757 110.703 867.865 110.137 869.85 112.122C870.538 112.81 872.315 113.411 873.8 113.458C875.285 113.506 877.255 113.879 878.178 114.288C879.413 114.835 881.524 113.432 886.178 108.973C892.94 102.494 894.312 101.939 897.171 104.527C898.873 106.067 899.128 106.067 900.838 104.519C902.559 102.961 902.796 102.989 904.588 104.97C907.105 107.754 913.836 111.149 915.542 110.494C916.283 110.21 919.7 111.079 923.134 112.425C926.569 113.771 929.53 114.872 929.714 114.872C929.899 114.872 930.479 113.741 931.005 112.36C931.53 110.978 933.206 109.306 934.73 108.644C938.867 106.846 944 102.809 944 101.354C944 100.221 946.034 99.7423 955 98.7633C955.825 98.6733 957.063 98.1563 957.75 97.6133C958.592 96.9493 959.499 97.0413 960.529 97.8963C961.797 98.9493 962.474 98.7753 964.49 96.8813C966.661 94.8423 967.24 94.7293 969.888 95.8263C972.072 96.7303 973.73 96.7763 976.177 95.9983C978.005 95.4173 980.7 94.7023 982.167 94.4083C985.697 93.7033 988.52 88.9293 990.051 81.0753C991.502 73.6353 990.764 71.3193 985.718 67.4713C983.097 65.4713 979.639 64.3943 970.9 62.8553C964.63 61.7513 955.225 59.9873 950 58.9353C944.775 57.8833 935.55 56.0563 929.5 54.8743C923.45 53.6933 917.098 52.2943 915.384 51.7663C908.72 49.7123 888.938 46.8223 877.5 46.2333C865.322 45.6063 842.511 47.5343 813.5 51.6433C804.69 52.8913 794.722 53.3373 776 53.3223C753.219 53.3033 749.522 53.0663 741.325 51.1013C724.03 46.9543 709.688 41.4423 694 32.9153C669.523 19.6103 656.298 13.7283 642.008 9.79329C631.983 7.03229 614.612 3.87228 609.457 3.87228C605.189 3.87228 577.678 8.33528 576.159 9.27428C574.36 10.3863 544.353 13.8723 536.634 13.8653C529.099 13.8593 496.186 10.4433 493.171 9.35428C492.439 9.09028 486.139 8.18229 479.171 7.33629C472.202 6.48928 465.825 5.59728 465 5.35228C464.175 5.10728 455.248 3.77428 445.163 2.38928C422.135 -0.771718 407.893 -0.793715 391.879 2.30828Z" fill="#E48AA1"></path></svg> 